<!DOCTYPE svg PUBLIC "-//W3C//DTD SVG 20010904//EN" "http://www.w3.org/TR/2001/REC-SVG-20010904/DTD/svg10.dtd">
<svg version="1.0" xmlns="http://www.w3.org/2000/svg" width="228px" height="280px" viewBox="0 0 2280 2800" preserveAspectRatio="xMidYMid meet">
<g id="layer101" fill="#7f00ff" stroke="none">
 <path d="M969 2700 c-125 -10 -295 -53 -394 -99 -133 -63 -212 -151 -229 -256 -4 -22 -38 -343 -76 -713 l-69 -673 -30 -34 c-47 -54 -61 -88 -72 -179 -13 -108 1 -223 36 -282 34 -57 110 -124 192 -166 75 -40 241 -95 311 -105 l45 -6 -8 44 c-4 24 -11 63 -15 87 -4 24 -11 47 -16 51 -5 5 -40 19 -79 31 -296 94 -366 222 -186 339 296 191 1107 214 1487 41 116 -53 193 -132 180 -186 -17 -68 -140 -151 -286 -194 -41 -13 -79 -26 -84 -31 -5 -4 -13 -32 -17 -61 -4 -29 -11 -68 -15 -87 l-7 -34 52 7 c137 18 360 117 440 196 58 56 81 103 92 194 19 144 -6 263 -71 346 l-30 38 -65 634 c-77 748 -81 781 -105 827 -58 112 -216 202 -435 246 -126 26 -390 38 -546 25z m245 -281 l26 -20 0 -567 0 -566 -22 -23 c-27 -29 -77 -30 -109 -4 l-24 19 0 572 0 572 24 19 c30 25 72 24 105 -2z m-482 -76 c29 -26 27 -48 -58 -821 -37 -337 -39 -344 -100 -378 -35 -19 -81 -13 -91 12 -8 21 94 1028 113 1119 8 38 59 85 92 85 14 0 34 -7 44 -17z m957 -9 c17 -14 35 -42 40 -62 9 -34 50 -407 101 -906 19 -186 19 -201 3 -218 -37 -42 -124 1 -142 70 -11 41 -58 451 -96 840 -25 253 -24 283 7 295 29 12 58 6 87 -19z"/>
 <path d="M814 566 c-40 -18 -44 -40 -35 -191 6 -113 9 -123 38 -166 19 -28 51 -56 85 -74 53 -30 53 -30 249 -33 186 -4 198 -3 244 19 59 28 111 79 136 133 15 33 19 66 19 162 0 145 -5 154 -92 154 -76 0 -84 -11 -91 -137 -9 -150 2 -143 -204 -143 -210 0 -203 -5 -203 138 0 51 -5 102 -10 112 -6 11 -27 24 -48 30 -46 12 -50 12 -88 -4z"/>
 </g>

</svg>