<!DOCTYPE svg PUBLIC "-//W3C//DTD SVG 20010904//EN" "http://www.w3.org/TR/2001/REC-SVG-20010904/DTD/svg10.dtd">
<svg version="1.0" xmlns="http://www.w3.org/2000/svg" width="256px" height="256px" viewBox="0 0 2560 2560" preserveAspectRatio="xMidYMid meet">
<g id="layer101" fill="#fbfbfb" stroke="none">
 <path d="M1733 2472 c-14 -9 -69 -127 -103 -222 -13 -36 -27 -69 -31 -74 -5 -5 -75 -24 -156 -43 -181 -40 -409 -102 -571 -154 -105 -34 -126 -38 -140 -27 -9 7 -51 42 -92 77 -198 170 -281 214 -288 151 -3 -28 75 -137 198 -279 l73 -84 -47 -146 c-62 -196 -110 -375 -148 -552 l-31 -146 -101 -37 c-161 -59 -210 -86 -214 -118 -5 -43 19 -49 144 -33 60 8 130 19 156 23 l47 9 149 -161 c154 -166 455 -453 514 -490 64 -41 177 -23 588 90 91 25 216 61 277 80 l113 35 102 -89 c131 -114 246 -202 263 -202 14 0 45 26 45 38 0 19 -103 151 -254 328 l-36 42 21 58 c40 116 129 438 164 593 39 177 44 266 17 323 -32 70 -287 338 -553 583 l-87 80 19 105 c25 144 25 226 0 240 -23 12 -23 12 -38 2z m-185 -459 c6 -9 12 -32 12 -50 0 -70 -141 -583 -187 -681 -31 -66 -65 -86 -236 -141 -150 -49 -510 -141 -549 -141 -36 0 -58 25 -58 65 0 48 93 414 145 567 47 142 69 174 145 213 114 57 634 200 690 189 14 -3 31 -12 38 -21z m429 -241 c232 -230 319 -330 333 -381 9 -34 6 -62 -15 -168 -48 -239 -143 -572 -173 -605 -9 -11 -29 -18 -50 -18 -32 0 -53 18 -261 228 -125 125 -241 249 -259 276 -47 72 -48 109 -13 281 34 166 123 490 147 536 18 36 49 50 86 37 15 -5 107 -89 205 -186z m-564 -743 c72 -37 332 -277 478 -442 105 -117 95 -146 -68 -196 -226 -69 -596 -156 -625 -147 -7 2 -25 7 -41 10 -71 16 -567 504 -567 559 0 13 10 33 23 44 33 31 343 122 617 181 77 17 137 14 183 -9z"/>
 </g>

</svg>